<?xml version="1.0" encoding="UTF-8"?>
<svg xmlns="http://www.w3.org/2000/svg" width="px" height="px" viewBox="0 0 24 24" version="1.1">
<g id="surface1">
<path style=" stroke:none;fill-rule:nonzero;fill:rgb(100%,100%,100%);fill-opacity:1;" d="M 20.5 12 C 20.5 16.699219 16.699219 20.5 12 20.5 C 7.300781 20.5 3.5 16.699219 3.5 12 C 3.5 7.300781 7.300781 3.5 12 3.5 C 16.699219 3.5 20.5 7.300781 20.5 12 Z M 20.5 12 "/>
<path style=" stroke:none;fill-rule:nonzero;fill:rgb(27.058824%,35.294118%,39.215686%);fill-opacity:1;" d="M 10.5 20.5 L 10.5 17.75 C 10.5 17.601562 10.601562 17.5 10.75 17.5 C 10.898438 17.5 11 17.601562 11 17.75 L 11 20.5 L 12 20.5 L 12 17.25 C 12 17.101562 12.101562 17 12.25 17 C 12.398438 17 12.5 17.101562 12.5 17.25 L 12.5 20.5 L 13.5 20.5 L 13.5 17.75 C 13.5 17.601562 13.601562 17.5 13.75 17.5 C 13.898438 17.5 14 17.601562 14 17.75 L 14 20.5 L 14.898438 20.5 C 15 20.351562 15 20.199219 15 19.949219 L 15 18 C 15 16.898438 14.050781 15.398438 12.851562 15.398438 L 11.601562 15.398438 C 10.449219 15.398438 9.449219 16.949219 9.449219 18 L 9.449219 19.949219 C 9.449219 20.148438 9.5 20.351562 9.550781 20.5 Z M 20.050781 13.199219 C 20.050781 13.199219 19.398438 13 18.851562 13 C 18.851562 13 18.800781 13 18.800781 13 C 18.25 13 17.351562 13.148438 17.351562 13.148438 C 17.300781 13.148438 17.300781 13.148438 17.300781 13.101562 C 17.300781 13.050781 17.300781 13.050781 17.351562 13.050781 C 17.398438 13.050781 18.351562 12.898438 18.898438 12.898438 C 19.449219 12.898438 20.101562 13.101562 20.148438 13.101562 C 20.199219 13.101562 20.199219 13.148438 20.199219 13.199219 C 20.101562 13.148438 20.101562 13.199219 20.050781 13.199219 Z M 19.898438 13.601562 C 19.898438 13.601562 19.199219 13.398438 18.601562 13.398438 C 18.148438 13.398438 17.101562 13.5 17.050781 13.5 C 17 13.5 17 13.5 17 13.449219 C 17 13.398438 17 13.398438 17.050781 13.398438 C 17.101562 13.398438 18.148438 13.300781 18.601562 13.300781 C 19.25 13.300781 19.898438 13.5 19.898438 13.5 C 19.949219 13.5 19.949219 13.550781 19.949219 13.601562 C 19.949219 13.550781 19.949219 13.601562 19.898438 13.601562 Z M 3.898438 13.199219 C 3.851562 13.199219 3.851562 13.199219 3.851562 13.148438 C 3.851562 13.101562 3.851562 13.101562 3.898438 13.050781 C 4.300781 12.949219 5.101562 12.800781 5.550781 12.800781 C 5.949219 12.800781 7.300781 12.898438 7.351562 12.898438 C 7.398438 12.898438 7.398438 12.949219 7.398438 12.949219 C 7.398438 13 7.351562 13 7.351562 13 C 7.351562 13 6 12.898438 5.601562 12.898438 C 5.050781 13 4.300781 13.101562 3.898438 13.199219 Z M 4.101562 13.949219 C 4.101562 13.949219 4.050781 13.949219 4.050781 13.898438 C 4.050781 13.851562 4.050781 13.851562 4.050781 13.800781 C 4.101562 13.800781 4.75 13.398438 5.5 13.300781 C 6.148438 13.199219 7.5 13.351562 7.601562 13.351562 C 7.648438 13.351562 7.648438 13.398438 7.648438 13.398438 C 7.648438 13.449219 7.601562 13.449219 7.601562 13.449219 C 7.601562 13.449219 6.199219 13.300781 5.550781 13.398438 C 4.800781 13.550781 4.101562 13.949219 4.101562 13.949219 Z M 4.101562 13.949219 "/>
<path style=" stroke:none;fill-rule:nonzero;fill:rgb(27.058824%,35.294118%,39.215686%);fill-opacity:1;" d="M 7.101562 11.75 C 7.101562 9.550781 9.398438 7.5 12.25 7.5 C 15.101562 7.5 17.398438 9.5 17.398438 11.75 C 17.398438 14 15.75 15.5 12.25 15.5 C 8.75 15.5 7.101562 13.949219 7.101562 11.75 Z M 7.101562 11.75 "/>
<path style=" stroke:none;fill-rule:nonzero;fill:rgb(27.058824%,35.294118%,39.215686%);fill-opacity:1;" d="M 14.300781 8.148438 C 14.300781 8.148438 15.148438 7 16.699219 7 C 17.300781 7.601562 16.898438 9.398438 16.699219 9.898438 Z M 10.199219 8.148438 C 10.199219 8.148438 9.351562 7 7.800781 7 C 7.199219 7.601562 7.601562 9.398438 7.800781 9.898438 Z M 10.050781 17.949219 C 10.050781 17.949219 8.898438 17.949219 8.648438 17.949219 C 8.050781 17.949219 7.5 17.699219 7.25 17.199219 C 6.949219 16.648438 6.699219 16.050781 5.949219 15.550781 C 5.800781 15.449219 5.898438 15.351562 6.148438 15.351562 C 6.398438 15.398438 6.851562 15.449219 7.199219 15.898438 C 7.550781 16.351562 7.949219 16.898438 8.601562 16.898438 C 9.25 16.898438 9.949219 16.898438 10.351562 16.449219 Z M 10.050781 17.949219 "/>
<path style=" stroke:none;fill-rule:nonzero;fill:rgb(0%,73.72549%,83.137255%);fill-opacity:1;" d="M 12 2 C 6.5 2 2 6.5 2 12 C 2 17.5 6.5 22 12 22 C 17.5 22 22 17.5 22 12 C 22 6.5 17.5 2 12 2 Z M 12 20 C 7.601562 20 4 16.398438 4 12 C 4 7.601562 7.601562 4 12 4 C 16.398438 4 20 7.601562 20 12 C 20 16.398438 16.398438 20 12 20 Z M 12 20 "/>
</g>
</svg>
