<?xml version="1.0" encoding="UTF-8"?>
<svg xmlns="http://www.w3.org/2000/svg" width="24px" height="24px" viewBox="0 0 24 24" version="1.1">
<g id="surface1">
<path style=" stroke:none;fill-rule:nonzero;fill:rgb(29.019608%,29.019608%,29.019608%);fill-opacity:1;" d="M 3.941406 5.882812 L 7.222656 9.167969 C 7.898438 9.84375 7.898438 10.941406 7.222656 11.617188 C 6.546875 12.292969 5.449219 12.292969 4.773438 11.617188 L 1.492188 8.332031 C 0.816406 7.65625 0.816406 6.5625 1.492188 5.882812 C 2.167969 5.207031 3.265625 5.207031 3.941406 5.882812 Z M 3.941406 5.882812 "/>
<path style=" stroke:none;fill-rule:nonzero;fill:rgb(29.019608%,29.019608%,29.019608%);fill-opacity:1;" d="M 10.957031 12.902344 L 17.988281 19.933594 C 18.664062 20.609375 18.664062 21.707031 17.988281 22.382812 C 17.3125 23.058594 16.21875 23.058594 15.539062 22.382812 L 8.507812 15.351562 C 7.832031 14.675781 7.832031 13.578125 8.507812 12.902344 C 9.1875 12.226562 10.28125 12.226562 10.957031 12.902344 Z M 10.957031 12.902344 "/>
<path style=" stroke:none;fill-rule:nonzero;fill:rgb(29.019608%,29.019608%,29.019608%);fill-opacity:1;" d="M 2.277344 5.441406 L 21.167969 0.53125 C 22.109375 0.289062 23.074219 0.84375 23.332031 1.78125 C 23.585938 2.703125 23.046875 3.652344 22.128906 3.90625 C 22.121094 3.910156 22.109375 3.910156 22.101562 3.914062 L 3.210938 8.824219 C 2.269531 9.066406 1.304688 8.511719 1.046875 7.574219 C 0.792969 6.652344 1.332031 5.699219 2.253906 5.445312 C 2.261719 5.445312 2.269531 5.441406 2.277344 5.441406 Z M 2.277344 5.441406 "/>
<path style=" stroke:none;fill-rule:nonzero;fill:rgb(29.019608%,29.019608%,29.019608%);fill-opacity:1;" d="M 15.0625 20.671875 L 19.96875 1.78125 C 20.210938 0.859375 21.152344 0.304688 22.078125 0.542969 C 22.085938 0.546875 22.09375 0.546875 22.101562 0.550781 C 23.039062 0.808594 23.597656 1.773438 23.351562 2.714844 L 18.445312 21.605469 C 18.203125 22.53125 17.261719 23.085938 16.335938 22.84375 C 16.328125 22.84375 16.320312 22.839844 16.3125 22.835938 C 15.375 22.578125 14.816406 21.613281 15.0625 20.671875 Z M 15.0625 20.671875 "/>
<path style=" stroke:none;fill-rule:evenodd;fill:rgb(32.54902%,70.980392%,100%);fill-opacity:1;" d="M 14.414062 11.980469 L 7.589844 18.804688 C 6.902344 19.492188 5.785156 19.492188 5.097656 18.804688 C 4.410156 18.117188 4.410156 17 5.097656 16.3125 L 11.921875 9.488281 C 12.609375 8.800781 13.726562 8.800781 14.414062 9.488281 C 15.101562 10.179688 15.101562 11.292969 14.414062 11.980469 Z M 14.414062 11.980469 "/>
<path style=" stroke:none;fill-rule:evenodd;fill:rgb(32.54902%,70.980392%,100%);fill-opacity:1;" d="M 4.253906 22.140625 L 3.226562 23.167969 C 2.539062 23.855469 1.421875 23.855469 0.734375 23.167969 C 0.046875 22.480469 0.046875 21.363281 0.734375 20.675781 L 1.761719 19.648438 C 2.449219 18.960938 3.566406 18.960938 4.253906 19.648438 C 4.941406 20.335938 4.941406 21.453125 4.253906 22.140625 Z M 4.253906 22.140625 "/>
</g>
</svg>
