<?xml version="1.0" encoding="UTF-8"?>
<svg xmlns="http://www.w3.org/2000/svg" width="px" height="px" viewBox="0 0 24 24" version="1.1">
<g id="surface1">
<path style=" stroke:none;fill-rule:nonzero;fill:rgb(1.176471%,66.27451%,95.686275%);fill-opacity:1;" d="M 21 6.214844 C 20.339844 6.507812 19.628906 6.703125 18.875 6.796875 C 19.640625 6.34375 20.226562 5.621094 20.503906 4.765625 C 19.789062 5.183594 18.996094 5.492188 18.15625 5.65625 C 17.484375 4.941406 16.523438 4.5 15.464844 4.5 C 13.421875 4.5 11.769531 6.140625 11.769531 8.160156 C 11.769531 8.445312 11.804688 8.722656 11.867188 8.996094 C 8.796875 8.839844 6.074219 7.382812 4.253906 5.167969 C 3.933594 5.710938 3.753906 6.34375 3.753906 7.011719 C 3.753906 8.28125 4.40625 9.398438 5.398438 10.058594 C 4.789062 10.039062 4.222656 9.871094 3.722656 9.601562 C 3.722656 9.613281 3.722656 9.628906 3.722656 9.644531 C 3.722656 11.421875 4.996094 12.898438 6.683594 13.234375 C 6.375 13.320312 6.050781 13.367188 5.714844 13.367188 C 5.472656 13.367188 5.242188 13.339844 5.015625 13.300781 C 5.488281 14.75 6.851562 15.8125 8.464844 15.84375 C 7.203125 16.824219 5.609375 17.410156 3.878906 17.410156 C 3.578125 17.410156 3.289062 17.390625 3 17.359375 C 4.632812 18.394531 6.574219 19 8.660156 19 C 15.453125 19 19.167969 13.421875 19.167969 8.582031 C 19.167969 8.425781 19.164062 8.265625 19.15625 8.109375 C 19.882812 7.597656 20.507812 6.953125 21 6.214844 "/>
</g>
</svg>
